<svg width="171" height="120" viewBox="0 0 171 120" fill="none" xmlns="http://www.w3.org/2000/svg">
<path d="M103.08 34.0475C103.073 36.9185 102.212 39.7223 100.606 42.102C99.0005 44.4816 96.7232 46.3292 94.0644 47.4095C91.3989 48.5019 88.4708 48.7845 85.6458 48.222C82.8207 47.6595 80.2239 46.2768 78.1797 44.2465C76.6602 42.7341 75.4973 40.9015 74.7758 38.8822C74.0544 36.863 73.7926 34.7081 74.0095 32.5747C74.2264 30.4413 74.9166 28.3833 76.0298 26.5508C77.1429 24.7182 78.6509 23.1574 80.4437 21.9821C83.2537 20.1302 86.6156 19.3031 89.9636 19.6399C93.3117 19.9768 96.4416 21.457 98.8268 23.8316C100.174 25.1699 101.243 26.7615 101.973 28.5147C102.703 30.2679 103.079 32.1482 103.08 34.0475V34.0475ZM93.8869 34.8784H83.1297C83.1591 36.4551 83.3363 38.0256 83.6588 39.5692C86.8863 39.3648 90.1235 39.3648 93.351 39.5692C93.6758 38.0258 93.8552 36.4553 93.8869 34.8784V34.8784ZM93.4415 28.5526C91.7301 28.5928 90.1259 28.6598 88.5183 28.6598C86.9108 28.6598 85.2865 28.576 83.6689 28.5526C83.3741 29.675 83.0694 32.5196 83.1698 33.2132H93.9706C93.7764 31.6116 93.6056 30.0704 93.4415 28.5526ZM84.064 26.8773C87.0071 27.0649 89.9592 27.0649 92.9023 26.8773C92.9023 26.827 92.929 26.8069 92.9257 26.7868C92.9223 26.7667 92.8989 26.6628 92.8822 26.6025C92.5259 25.3164 91.9528 24.1006 91.1875 23.0074C90.865 22.5468 90.4769 22.1359 90.0354 21.7878C88.9302 20.9267 87.815 20.9803 86.7768 21.9252C85.3333 23.262 84.6401 25.0177 84.064 26.8907V26.8773ZM84.0942 41.154C84.1035 41.2363 84.1181 41.318 84.1377 41.3986C84.5397 42.8035 85.181 44.1285 86.0333 45.3154C86.4119 45.8435 86.9084 46.276 87.4834 46.5785C87.7836 46.7564 88.1249 46.853 88.4737 46.8589C88.8225 46.8648 89.1668 46.7797 89.4728 46.612C89.841 46.4207 90.1794 46.177 90.4775 45.8883C91.5626 44.8228 92.1822 43.4826 92.6745 42.072C92.7783 41.7805 92.8654 41.4823 92.9692 41.154C90.0115 40.9672 87.0447 40.9716 84.0875 41.1674L84.0942 41.154ZM75.611 33.1897H81.4116L81.9407 28.3817C81.9072 28.3817 81.857 28.3616 81.8034 28.3549C80.3365 28.1739 78.8685 27.9986 77.3994 27.8288C77.3374 27.8324 77.2774 27.852 77.2252 27.8858C77.1734 27.9176 77.1297 27.9612 77.098 28.0131C76.8233 28.5827 76.5454 29.1557 76.321 29.7487C75.9133 30.8536 75.6739 32.0136 75.611 33.1897V33.1897ZM75.611 34.865C75.7259 36.6983 76.2366 38.485 77.108 40.1019C77.2051 40.2828 77.329 40.2594 77.4798 40.2393C78.2567 40.1354 79.0371 40.0282 79.8241 39.931C80.5408 39.8439 81.2575 39.7702 81.9407 39.6931L81.4082 34.8884L75.611 34.865ZM101.399 33.1897C101.283 31.3687 100.78 29.5934 99.9219 27.983C99.8875 27.9147 99.8308 27.8604 99.7612 27.8288C99.6879 27.8004 99.6067 27.8004 99.5334 27.8288C98.5856 27.9595 97.6312 28.0801 96.6834 28.1974C96.1375 28.2678 95.5882 28.318 95.0758 28.375C95.4354 29.9567 95.613 31.5743 95.605 33.1964L101.399 33.1897ZM95.6016 34.865L95.0725 39.6596C95.0924 39.6698 95.1139 39.6766 95.1361 39.6797C96.6331 39.864 98.1503 40.0483 99.6339 40.2225C99.6829 40.2234 99.7312 40.2118 99.7746 40.189C99.8182 40.1681 99.8553 40.1357 99.8817 40.0952C100.769 38.4856 101.288 36.6994 101.402 34.865H95.6016ZM92.3095 46.287C94.8849 45.496 97.1523 43.9264 98.8 41.7939C98.7543 41.7732 98.7073 41.7553 98.6593 41.7403C97.3699 41.5929 96.0839 41.4488 94.7911 41.3148C94.7435 41.3276 94.6993 41.3508 94.6617 41.3826C94.6241 41.4145 94.5939 41.4542 94.5734 41.4991C94.4261 41.9146 94.3122 42.3434 94.1649 42.7589C93.7089 44.0171 93.086 45.2083 92.3128 46.3004L92.3095 46.287ZM84.7037 21.7777C82.1058 22.5797 79.8228 24.1726 78.173 26.3345L82.3895 26.8036C82.8469 25.0007 83.6313 23.2972 84.7037 21.7777V21.7777ZM98.8 26.301C97.7517 24.5386 94.2787 22.1262 92.3698 21.8112C92.5539 22.0893 92.7415 22.3574 92.9157 22.6321C93.6282 23.8302 94.1714 25.1213 94.5299 26.4685C94.5902 26.6796 94.6572 26.7801 94.9184 26.7466C95.6351 26.6528 96.3552 26.6025 97.0752 26.5221C97.6412 26.4618 98.2105 26.3747 98.7899 26.2976L98.8 26.301ZM78.2266 41.7537C79.4725 43.6434 83.0392 46.1094 84.6769 46.2301C83.6603 44.8051 82.9124 43.2063 82.4699 41.5125C82.4163 41.3282 82.3359 41.288 82.1551 41.3115C81.6293 41.3718 81.0968 41.4053 80.571 41.4656C79.7873 41.546 79.017 41.6532 78.2132 41.7537H78.2266Z" fill="white"/>
<path fill-rule="evenodd" clip-rule="evenodd" d="M119.36 26.3722C119.216 26.3059 119.088 26.2088 118.986 26.0878C118.883 25.9668 118.808 25.8249 118.767 25.6719C117.524 21.2358 115.349 17.1161 112.387 13.5883C109.425 10.0605 105.745 7.20582 101.592 5.215C97.4387 3.22418 92.9088 2.14311 88.3048 2.04404C83.7007 1.94497 79.1286 2.83018 74.8939 4.64051L78.2061 5.95393L68.8856 7.42817L73.9327 0V2.83122C78.4475 0.877375 83.3284 -0.0859591 88.2467 0.0060848C93.165 0.0981287 98.0064 1.24341 102.445 3.36482C106.884 5.48622 110.816 8.53449 113.979 12.3044C117.141 16.0742 119.459 20.4782 120.776 25.2196C120.824 25.4058 120.818 25.6019 120.758 25.7846C120.698 25.9673 120.586 26.1289 120.437 26.2502C120.288 26.3715 120.107 26.4475 119.916 26.4691C119.725 26.4908 119.532 26.4571 119.36 26.3722V26.3722ZM54.8898 35.5929C54.7319 35.5173 54.5571 35.4842 54.3825 35.497C54.2079 35.5098 54.0397 35.568 53.8945 35.6659C53.7494 35.7637 53.6323 35.8978 53.5548 36.0548C53.4774 36.2119 53.4423 36.3864 53.4531 36.5612C54.7559 54.1751 69.5688 68.0564 87.6471 68.0564C95.1949 68.073 102.538 65.6 108.539 61.0202L109.209 64.0357L112.501 55.6996L103.719 59.1473L106.924 59.6666C101.349 63.8098 94.5858 66.0424 87.6405 66.0327C70.6707 66.0327 56.762 53.0158 55.4893 36.4942C55.4793 36.304 55.4184 36.12 55.313 35.9614C55.2075 35.8028 55.0613 35.6756 54.8898 35.5929Z" fill="white"/>
<path fill-rule="evenodd" clip-rule="evenodd" d="M57.8062 7.87797C57.9753 7.80009 58.1593 7.75977 58.3454 7.75977C58.5316 7.75977 58.7156 7.80009 58.8847 7.87797L69.6017 12.7865C69.825 12.8871 70.0145 13.05 70.1476 13.2556C70.2806 13.4612 70.3516 13.7009 70.3519 13.9458V27.0297C70.3486 27.2608 70.2827 27.4866 70.1612 27.683C70.0397 27.8795 69.8671 28.0394 69.662 28.1455L58.9449 33.8783C58.7692 33.9724 58.5741 34.0246 58.3749 34.031C58.1756 34.0374 57.9776 33.9978 57.7962 33.9151L47.0925 29.0233C46.8699 28.9223 46.6811 28.7592 46.5486 28.5536C46.4162 28.348 46.3457 28.1086 46.3457 27.864V13.9458C46.3461 13.7013 46.4168 13.4621 46.5492 13.2566C46.6816 13.0511 46.8702 12.8879 47.0925 12.7865L57.8062 7.87797ZM54.8189 11.1213L63.3791 15.0415C63.5482 15.1193 63.7322 15.1597 63.9183 15.1597C64.1045 15.1597 64.2884 15.1193 64.4575 15.0415L67.4449 13.6744L58.8847 9.75428C58.7156 9.6764 58.5316 9.63607 58.3454 9.63607C58.1593 9.63607 57.9753 9.6764 57.8062 9.75428L54.8189 11.1213ZM68.6338 15.0046L59.2028 19.3235V31.8311L68.6338 26.8052V15.0046ZM57.4881 31.9115V19.3235L48.0604 15.0046V27.5926L57.4881 31.9115ZM49.2494 13.6744L57.8062 17.5946C57.9753 17.6725 58.1593 17.7128 58.3454 17.7128C58.5316 17.7128 58.7156 17.6725 58.8847 17.5946L61.872 16.2242L53.3151 12.3041C53.1447 12.2288 52.9605 12.19 52.7743 12.19C52.588 12.19 52.4038 12.2288 52.2334 12.3041L49.2494 13.6744ZM65.9211 19.0152C65.9625 19.1904 65.9445 19.3743 65.8699 19.5381C65.7953 19.7019 65.6684 19.8362 65.5091 19.9199L63.8949 20.7742C63.7875 20.8317 63.6689 20.8649 63.5473 20.8715C63.4258 20.8782 63.3042 20.8582 63.1912 20.8128C63.0782 20.7675 62.9765 20.6979 62.8933 20.6091C62.81 20.5202 62.7472 20.4142 62.7093 20.2985V20.2985C62.6447 20.109 62.6513 19.9026 62.7277 19.7176C62.8041 19.5327 62.9452 19.3818 63.1246 19.2933L64.7556 18.4691C64.8654 18.4136 64.9863 18.3836 65.1094 18.3812C65.2324 18.3788 65.3544 18.4041 65.4663 18.4553C65.5782 18.5064 65.6772 18.5821 65.7559 18.6767C65.8346 18.7713 65.8911 18.8824 65.9211 19.0018V19.0152Z" fill="white"/>
<path fill-rule="evenodd" clip-rule="evenodd" d="M117.968 29.1746C118.138 29.0969 118.323 29.0566 118.509 29.0566C118.696 29.0566 118.88 29.0969 119.05 29.1746L129.767 34.0832C129.99 34.1842 130.179 34.3473 130.311 34.5529C130.444 34.7585 130.514 34.9979 130.514 35.2425V48.3096C130.514 48.5402 130.452 48.7666 130.334 48.9647C130.216 49.1629 130.047 49.3255 129.844 49.4354L119.127 55.1682C118.951 55.2623 118.756 55.3146 118.557 55.321C118.358 55.3274 118.16 55.2877 117.978 55.205L107.278 50.3032C107.056 50.2018 106.867 50.0386 106.735 49.8331C106.602 49.6276 106.532 49.3884 106.531 49.1439V35.2425C106.531 34.9979 106.602 34.7585 106.734 34.5529C106.867 34.3473 107.055 34.1842 107.278 34.0832L117.968 29.1746ZM114.984 32.4179L124.08 36.586L127.6 34.9711L118.508 30.803L114.984 32.4179ZM128.796 36.2979L119.365 40.6201V53.1143L128.796 48.0885V36.2979ZM117.65 53.2081V40.6201L108.223 36.2979V48.8893L117.65 53.2081ZM109.411 34.9711L118.508 39.1358L122.034 37.5275L112.938 33.3527L109.411 34.9711ZM126.083 40.3118C126.125 40.487 126.107 40.6709 126.032 40.8347C125.957 40.9985 125.831 41.1328 125.671 41.2165L124.06 42.0709C123.953 42.1283 123.834 42.1615 123.712 42.1682C123.59 42.1749 123.469 42.1549 123.355 42.1096C123.242 42.0642 123.14 41.9947 123.056 41.9059C122.973 41.817 122.91 41.7109 122.871 41.5951V41.5951C122.808 41.4056 122.814 41.1995 122.891 41.0147C122.967 40.8299 123.108 40.679 123.287 40.5899L124.918 39.7657C125.028 39.7102 125.148 39.6802 125.271 39.6778C125.394 39.6754 125.516 39.7007 125.628 39.7519C125.74 39.8031 125.839 39.8787 125.918 39.9733C125.997 40.068 126.053 40.1791 126.083 40.2984V40.3118Z" fill="white"/>
<path d="M25.0117 101.919L22.9655 99.0983H9.58589L7.53625 101.919H2.20117L16.284 83.334L30.3267 101.919H25.0117ZM12.3321 95.3223H20.2159L16.284 89.9078L12.3321 95.3223Z" fill="white"/>
<path d="M31.9336 101.921V84.1426H46.636C52.4166 84.1426 55.3057 87.0888 55.3035 92.9813V93.1824C55.3035 96.0705 54.5979 98.2484 53.1868 99.7159C51.7758 101.183 49.5922 101.918 46.636 101.921H31.9336ZM36.1032 98.4882H46.7767C48.3262 98.4882 49.4426 98.1398 50.1258 97.4428C50.809 96.7459 51.1439 94.584 51.1305 93.1589V92.9545C51.1305 91.4959 50.7599 89.871 50.0901 89.1741C49.4203 88.4772 48.3396 88.0732 46.7767 88.0732H36.1032V98.4882Z" fill="white"/>
<path d="M78.0525 101.92L75.9928 99.0993H62.6266L60.587 101.92H55.2285L69.3114 83.335L83.3608 101.92H78.0525ZM65.3729 95.3232H73.2566L69.3248 89.9087L65.3729 95.3232Z" fill="white"/>
<path d="M84.9785 101.92V83.7129L98.1772 94.5653L111.359 83.7129V101.92H107.206V92.5382L98.1638 100.04L89.1213 92.5382V101.92H84.9785Z" fill="white"/>
<path d="M115.088 101.921V84.1426H119.261V101.921H115.088Z" fill="white"/>
<path d="M132.104 101.921C128.8 101.921 126.395 101.039 124.89 99.277C123.385 97.5146 122.633 94.6778 122.633 90.7666V84.1426H126.806V90.7398C126.806 93.1969 127.191 94.9179 127.961 95.903C128.731 96.8881 130.071 97.3828 131.98 97.3873H136.133C138.073 97.3873 139.454 96.8881 140.276 95.8896C141.097 94.8911 141.508 93.1745 141.508 90.7398V84.1426H145.658V90.7666C145.658 94.6599 144.876 97.4923 143.313 99.2636C141.75 101.035 139.307 101.921 135.982 101.921H132.104Z" fill="white"/>
<path d="M148.752 101.92V97.7384H164.101C164.598 97.7723 165.094 97.6555 165.524 97.4034C165.687 97.2712 165.814 97.1007 165.895 96.9072C165.975 96.7136 166.007 96.503 165.986 96.2943C166.007 96.0925 165.976 95.8888 165.897 95.7019C165.818 95.5151 165.693 95.3513 165.534 95.2255C165.098 94.9816 164.599 94.8721 164.101 94.9106H153.568C151.855 94.9106 150.595 94.4314 149.787 93.4732C148.978 92.5149 148.574 91.2138 148.574 89.5698C148.574 87.8923 148.978 86.5666 149.787 85.5927C150.595 84.6188 151.855 84.1318 153.568 84.1318H169.643V88.3133H154.593C154.135 88.2753 153.677 88.3844 153.286 88.6249C153.141 88.7605 153.029 88.9278 152.96 89.1138C152.89 89.2998 152.864 89.4995 152.884 89.6971C152.861 89.8936 152.884 90.0929 152.952 90.2787C153.02 90.4646 153.131 90.6315 153.276 90.7659C153.675 90.9947 154.134 91.0964 154.593 91.0574H165.243C166.98 91.0574 168.253 91.5354 169.064 92.4915C169.874 93.4475 170.28 94.7486 170.28 96.3949C170.28 98.0902 169.874 99.4305 169.064 100.416C168.253 101.401 166.98 101.895 165.243 101.9L148.752 101.92Z" fill="white"/>
<path d="M26.1863 119.693C25.6037 119.914 24.9759 120.018 24.3457 119.997C22.3802 119.997 20.9141 118.86 20.9141 116.755C20.9141 114.742 22.3908 113.397 24.5528 113.397C25.1196 113.377 25.6842 113.474 26.2049 113.68L25.9791 114.357C25.541 114.174 25.0636 114.083 24.5821 114.092C22.9486 114.092 21.8649 115.049 21.8649 116.728C21.8649 118.302 22.845 119.298 24.521 119.298C25.0289 119.305 25.5329 119.215 26.0004 119.033L26.1863 119.693Z" fill="white"/>
<path d="M30.4321 113.395V116.165H33.4325V113.395H34.2506V120H33.442V116.903H30.4321V120H29.6211V113.395H30.4321Z" fill="white"/>
<path d="M38.9553 117.922L38.3012 120H37.457L39.6215 113.395H40.5834L42.7479 120H41.8773L41.2039 117.922H38.9553ZM41.0332 117.255L40.4079 115.354C40.266 114.923 40.1674 114.53 40.0784 114.148H40.0616C39.9678 114.53 39.874 114.943 39.7417 115.344L39.1236 117.255H41.0332Z" fill="white"/>
<path d="M45.2949 119.998V113.395H46.2994L48.5473 116.735C49.0153 117.423 49.4343 118.14 49.8015 118.88H49.8338C49.7505 117.999 49.729 117.196 49.729 116.166V113.397H50.5858V120H49.6672L47.4301 116.649C46.9427 115.942 46.5057 115.206 46.1221 114.444H46.0899C46.1436 115.278 46.1543 116.07 46.1543 117.168V119.99L45.2949 119.998Z" fill="white"/>
<path d="M59.2889 119.645C58.6527 119.879 57.9805 119.999 57.303 120C56.3223 120 55.528 119.753 54.8979 119.147C54.5966 118.825 54.3622 118.447 54.2081 118.033C54.054 117.619 53.9835 117.179 54.0006 116.737C54.0006 114.806 55.3269 113.396 57.4844 113.396C58.0369 113.382 58.5861 113.484 59.0977 113.694L58.8868 114.375C58.4404 114.173 57.9538 114.078 57.4648 114.096C55.9006 114.096 54.8783 115.083 54.8783 116.698C54.8783 118.313 55.8589 119.31 57.3594 119.31C57.7367 119.33 58.1142 119.271 58.4676 119.137V117.208H57.1682V116.535H59.2889V119.645Z" fill="white"/>
<path d="M65.7433 116.903H63.4717V119.285H66.0138V120H62.707V113.395H65.8819V114.11H63.4717V116.197H65.7433V116.903Z" fill="white"/>
<path d="M72.4501 114.12H70.543V113.395H75.1724V114.12H73.2653V120H72.4501V114.12Z" fill="white"/>
<path d="M78.3166 113.395V116.165H81.3207V113.395H82.1334V120H81.3207V116.903H78.3166V120H77.5039V113.395H78.3166Z" fill="white"/>
<path d="M89.2514 116.903H86.9798V119.285H89.5197V120H86.2129V113.395H89.39V114.11H86.9798V116.197H89.2514V116.903Z" fill="white"/>
<path d="M94.918 113.538C95.5014 113.441 96.0917 113.393 96.683 113.395C97.8768 113.395 98.725 113.684 99.2889 114.205C99.8527 114.725 100.206 115.488 100.206 116.539C100.225 117.001 100.153 117.462 99.9942 117.896C99.8351 118.33 99.5919 118.728 99.279 119.066C98.6686 119.673 97.6758 120 96.4256 120C95.922 120.004 95.4186 119.978 94.918 119.923V113.538ZM95.749 119.286C96.0274 119.317 96.3074 119.33 96.5874 119.326C98.372 119.326 99.3256 118.322 99.3256 116.568C99.3256 115.035 98.4774 114.061 96.7222 114.061C96.3932 114.055 96.0645 114.084 95.7416 114.148L95.749 119.286Z" fill="white"/>
<path d="M104.286 113.395V120H103.625V113.395H104.286Z" fill="white"/>
<path d="M107.114 113.532C107.613 113.44 108.118 113.394 108.624 113.395C109.464 113.395 110.017 113.57 110.386 113.93C110.542 114.091 110.665 114.285 110.748 114.501C110.83 114.716 110.87 114.947 110.864 115.18C110.867 115.553 110.758 115.917 110.553 116.217C110.348 116.517 110.058 116.738 109.727 116.846V116.876C110.191 117.051 110.467 117.516 110.611 118.199C110.715 118.813 110.871 119.416 111.076 120H110.261C110.082 119.492 109.949 118.967 109.864 118.432C109.682 117.526 109.348 117.181 108.635 117.156H107.895V120H107.107L107.114 113.532ZM107.902 116.533H108.705C109.545 116.533 110.079 116.033 110.079 115.283C110.079 114.438 109.508 114.067 108.686 114.067C108.426 114.058 108.166 114.08 107.911 114.135L107.902 116.533Z" fill="white"/>
<path d="M117.117 116.903H114.834V119.285H117.379V120H114.072V113.395H117.256V114.11H114.834V116.197H117.11L117.117 116.903Z" fill="white"/>
<path d="M124.777 119.693C124.267 119.914 123.718 120.018 123.167 119.997C121.448 119.997 120.166 118.86 120.166 116.755C120.166 114.742 121.458 113.397 123.348 113.397C123.845 113.377 124.339 113.474 124.795 113.68L124.596 114.355C124.213 114.171 123.797 114.081 123.376 114.089C121.945 114.089 120.998 115.047 120.998 116.725C120.998 118.299 121.857 119.296 123.32 119.296C123.765 119.303 124.205 119.213 124.614 119.03L124.777 119.693Z" fill="white"/>
<path d="M129.037 114.12H127.131V113.395H131.76V114.12H129.854V120H129.037V114.12Z" fill="white"/>
<path d="M135.628 113.395V120H134.967V113.395H135.628Z" fill="white"/>
<path d="M143.53 116.635C143.53 118.826 142.168 120 140.507 120C138.77 120 137.578 118.683 137.578 116.75C137.578 114.721 138.854 113.395 140.594 113.395C142.381 113.39 143.53 114.731 143.53 116.635ZM138.467 116.73C138.467 118.103 139.211 119.326 140.554 119.326C141.897 119.326 142.642 118.123 142.642 116.674C142.642 115.393 141.964 114.067 140.564 114.067C139.164 114.067 138.464 115.337 138.464 116.73H138.467Z" fill="white"/>
<path d="M146.285 119.998V113.395H147.283L149.529 116.735C149.995 117.424 150.414 118.14 150.782 118.88H150.811C150.728 117.999 150.709 117.196 150.709 116.166V113.397H151.576V120H150.656L148.421 116.649C147.935 115.942 147.499 115.206 147.117 114.444H147.085C147.136 115.278 147.146 116.07 147.146 117.168V119.99L146.285 119.998Z" fill="white"/>
<path d="M16.5418 115.597H0V118.205H16.5418V115.597Z" fill="white"/>
<path d="M170.641 115.597H154.1V118.205H170.641V115.597Z" fill="white"/>
</svg>
