<svg xmlns="http://www.w3.org/2000/svg" width="48" height="48" fill="none"><path d="M21.857 21.208c.634.424 1.38.65 2.143.65a3.86 3.86 0 0 0 3.857-3.857 3.86 3.86 0 0 0-2.381-3.564 3.86 3.86 0 0 0-4.203.836c-.54.54-.907 1.227-1.056 1.975s-.073 1.524.219 2.229a3.86 3.86 0 0 0 1.421 1.731z" fill="#971717"/><path fill-rule="evenodd" d="M24.654 1.737c4.026.209 7.831 1.902 10.682 4.752 2.644 2.644 4.299 6.117 4.688 9.837s-.514 7.459-2.555 10.593L26.132 44.319c-.252.387-.597.705-1.003.926s-.861.336-1.323.336-.917-.115-1.323-.336-.751-.538-1.003-.926L10.144 26.918c-2.2-3.378-3.07-7.451-2.444-11.433s2.706-7.591 5.837-10.13 7.091-3.828 11.117-3.619zm-4.939 9.85c1.269-.848 2.76-1.3 4.286-1.3 2.045.002 4.006.816 5.452 2.262s2.26 3.407 2.262 5.452c0 1.526-.453 3.017-1.3 4.286s-2.053 2.257-3.462 2.841-2.961.737-4.457.439-2.871-1.032-3.95-2.111-1.814-2.453-2.111-3.95-.145-3.048.439-4.457 1.573-2.614 2.841-3.462z" fill="#c53c34"/></svg>