<svg xmlns="http://www.w3.org/2000/svg" width="72" height="70" fill="none"><path d="M64.253 36.2a8.12 8.12 0 0 1 4.208 1.999c2.715 2.464 3.547 6.511 1.578 9.583-2.081 3.247-4.529 6.259-6.876 9.452l-4.318-5.731c-.078.157-.17.306-.274.446l-3.755 4.063c-.288.298-.428.548-.288.945.692 1.969.749 4.008.686 6.065-.047 1.561-.92 2.442-2.487 2.464h-.206c-.777 0-1.647-.224-2.3.066s-.966 1.095-1.447 1.67c-3.517 4.156-10.094 3.56-12.853-1.199-.081-.179-.217-.328-.388-.426s-.368-.141-.564-.121H23.387c-.195-.019-.392.024-.562.123a.94.94 0 0 0-.386.425 7.87 7.87 0 0 1-2.885 2.893c-1.201.694-2.564 1.06-3.951 1.06s-2.751-.366-3.951-1.06-2.196-1.692-2.885-2.893a.98.98 0 0 0-.415-.449c-.183-.102-.393-.143-.601-.117-1.46.033-2.923.019-4.392 0-1.562 0-2.471-.917-2.471-2.464v-2.119c-.003-.483.159-.953.458-1.332s.718-.648 1.189-.759c.549-.112.612-.378.609-.838V40.997v-4.578c0-1.709.865-2.557 2.569-2.566H7.69c.126-2.442.547-4.859 1.252-7.201a29.15 29.15 0 0 1 3.039-6.612 8.7 8.7 0 0 1-1.957-4.233c-.165-1.147-.074-2.316.265-3.424a7.89 7.89 0 0 1 1.698-2.988c.779-.86 1.738-1.538 2.809-1.987s2.228-.657 3.389-.609c1.987.06 3.872.889 5.257 2.311.106.141.262.237.436.269s.353-.002.503-.096c3.672-1.659 7.663-2.5 11.694-2.464.176.018.353-.016.51-.098a.89.89 0 0 0 .369-.365c1.466-2.347 3.621-4.188 6.171-5.273S48.497-.28 51.211.288c5.402 1.095 9.682 5.528 10.618 11.119.503 2.92.03 5.925-1.345 8.551-.162.318-.255.548-.041.928 2.666 4.521 3.98 9.708 3.786 14.95-.003.112.014.224.025.364zM9.994 33.881h24.11.686c1.373.038 2.273.923 2.295 2.278.022 1.254 0 2.505 0 3.759v.709h.845 9.525c1.993 0 3.22.961 3.7 2.875l1.416 5.695 1.227 4.833 2.94-3.444c.725-.895.692-.923.022-1.862-3.116-4.381-1.345-10.232 3.67-12.102.486-.181.996-.298 1.537-.46a25.9 25.9 0 0 0-3.176-13.63L48.449 35.653c-.07-.051-.137-.108-.198-.17L37.406 21.659c-2.226-2.924-2.918-6.328-2.418-9.958.121-.871.354-1.725.549-2.642-3.596.047-7.141.85-10.404 2.357.012.1.033.199.063.296 1.098 2.913.631 5.575-1.235 8.036l-5.636 7.486c-.143.192-.299.372-.48.6l-4.392-5.84c-2.109 3.622-3.297 7.704-3.459 11.889zM25.822 44.74c-1.617-.805-3.138-1.484-4.576-2.286-.333-.223-.725-.342-1.125-.342s-.793.119-1.125.342c-1.444.821-2.957 1.495-4.54 2.281v-8.578H5.456v22.521c.804 0 1.556-.03 2.306.014.209.026.422-.017.604-.123a.97.97 0 0 0 .409-.461 7.87 7.87 0 0 1 2.883-2.87c1.197-.688 2.553-1.05 3.934-1.05s2.738.362 3.934 1.05a7.87 7.87 0 0 1 2.883 2.87c.085.191.229.35.409.455s.39.152.598.133l10.686-.014c.222 0 .445-.019.695-.03V36.157h-8.976v8.584zM48.4 32.014c.132-.145.228-.238.31-.342l8.664-11.013c1.505-1.943 2.332-4.324 2.355-6.779.239-8.619-8.971-14.342-16.602-10.298-6.294 3.338-7.974 11.492-3.549 17.242l5.369 6.82 3.453 4.37zm.733 13.143c-.104-1.87-.469-2.234-2.196-2.234h-9.8V56.41c.091-.019.145-.014.173-.038a7.93 7.93 0 0 1 3.12-1.818c1.166-.358 2.4-.443 3.605-.247s2.348.666 3.34 1.375a7.91 7.91 0 0 1 2.381 2.711.58.58 0 0 0 .398.29c.791.027 1.584.014 2.418.014-.038-.241-.052-.4-.088-.548l-1.372-5.558c-.115-.496-.299-.657-.81-.649-2.1.03-4.203.025-6.314 0-1.373 0-2.317-.936-2.369-2.308-.022-.548 0-1.095 0-1.643 0-2.034.823-2.839 2.874-2.842l4.639.008zM17.866 24.109c1.672-2.259 3.368-4.353 4.84-6.593 1.529-2.325.887-5.421-1.276-7.201-1.044-.852-2.359-1.302-3.708-1.269s-2.64.548-3.641 1.45c-2.072 1.859-2.531 4.981-.939 7.261 1.482 2.13 3.102 4.162 4.724 6.352zm45.261 29.355c1.647-2.221 3.294-4.277 4.749-6.443a5.74 5.74 0 0 0 .857-2.681c.173-2.322-.854-4.129-2.896-5.241s-4.164-.983-6.056.419-2.613 3.34-2.16 5.657c.087.563.288 1.102.59 1.585 1.581 2.223 3.22 4.403 4.916 6.703zM42.772 67.718c1.116-.004 2.206-.337 3.132-.958s1.647-1.502 2.071-2.531a5.62 5.62 0 0 0 .314-3.252 5.63 5.63 0 0 0-1.549-2.879 5.65 5.65 0 0 0-2.891-1.537 5.66 5.66 0 0 0-3.26.323c-1.031.426-1.912 1.148-2.531 2.073a5.62 5.62 0 0 0-.952 3.126c.005 1.496.604 2.928 1.666 3.985s2.5 1.65 4 1.65zm-27.176 0c1.115-.004 2.204-.337 3.13-.957s1.646-1.5 2.071-2.529a5.62 5.62 0 0 0 .316-3.25 5.63 5.63 0 0 0-1.545-2.879 5.65 5.65 0 0 0-2.887-1.54 5.66 5.66 0 0 0-3.259.317c-1.031.424-1.913 1.144-2.534 2.067a5.62 5.62 0 0 0-.958 3.123c.001 1.497.598 2.933 1.659 3.992s2.5 1.655 4.001 1.657h.005zm1.186-26.674l2.778-1.391c.169-.105.365-.161.564-.161s.395.056.564.161c.895.482 1.817.914 2.775 1.394v-4.89h-6.687l.006 4.887zm6.734 19.963v2.144h11.326v-2.144H23.516zm26.839-11.385l-.549-2.152h-5.861v2.152h6.41zM7.679 63.189v-2.19H3.211v2.19h4.469zm45.239-2.19h-2.254v2.155h2.254v-2.155z" fill="#fff"/></svg>