<svg xmlns="http://www.w3.org/2000/svg" width="72" height="70" fill="#fff"><path d="M30.162 17.517H9.152v.818 17.357c0 1.28-.354 1.628-1.654 1.628H2.393c-.997 0-1.412-.424-1.412-1.429L.969 11.894a1.46 1.46 0 0 1 .769-1.374L18.864.251c.23-.158.504-.243.783-.243a1.38 1.38 0 0 1 .783.243l17.126 10.27a1.46 1.46 0 0 1 .789 1.365v24.07c0 .95-.433 1.374-1.388 1.38h-5.328c-1.046 0-1.461-.412-1.461-1.461v-17.43l-.006-.926zm5.798 17.439a2.62 2.62 0 0 0 .038-.292l.018-21.878c0-.473-.245-.631-.561-.821L20.331 2.887a1.08 1.08 0 0 0-1.306-.02L3.892 11.938a1.09 1.09 0 0 0-.463.455c-.104.195-.147.418-.121.638v21.162.766h3.507v-.821-17.287c0-1.356.33-1.695 1.657-1.695H30.87c1.286 0 1.631.351 1.631 1.651v17.284.877l3.46-.012zm16.349 11.719H34.896v6.877l1.35-1.754 1.859 1.382-1.754 2.338-1.71 2.271c-.544.687-1.359.751-1.873.096l-3.542-4.691 1.856-1.4 1.356 1.771v-6.853H13.866v6.85l1.368-1.753 1.859 1.38-3.586 4.734c-.474.602-1.286.558-1.771-.067l-3.507-4.659 1.844-1.397 1.365 1.754.05-.707v-6.926c0-1.242.36-1.602 1.604-1.602h55.586v-6.961h2.309c0 .196.041.403.041.611v7.148c0 1.148-.389 1.54-1.523 1.54H54.743v6.909l1.368-1.754 1.847 1.377-3.58 4.731c-.494.623-1.312.549-1.824-.114l-3.463-4.609 1.85-1.4 1.371 1.78-.003-6.903zm5.973-23.362h4.176c.821-.026 1.347.292 1.64 1.038.088.225.216.432.324.649 2.025 4.048 2.025 4.048 1.941 8.592-.018.988-.43 1.394-1.438 1.409h-.655c-.935-.073-1.607.053-2.259.997-1.397 2.022-4.454 1.718-5.664-.444a.91.91 0 0 0-.377-.44.9.9 0 0 0-.567-.121h-4.968c-.185-.027-.374.008-.537.1s-.291.236-.363.408c-.292.549-.727 1.008-1.259 1.329s-1.142.492-1.763.493a3.44 3.44 0 0 1-3.033-1.805.9.9 0 0 0-.962-.526c-1.593 0-1.856-.263-1.856-1.856V21.387c0-1.198.371-1.572 1.561-1.575H56.66c1.134 0 1.511.392 1.517 1.543l.015 1.753a.9.9 0 0 0 .091.205zm-15.226 9.501l.494-.815c1.257-2.046 4.156-2.355 5.553-.418.728 1.017 1.482 1.148 2.519 1.078.675-.047 1.359 0 2.046 0h2.142V22.19H43.056v10.623zm15.168-7.163v4.793c2.031-.234 3.27.12 3.975 1.435.462.859 1.035.815 1.827.728V30.42a3.2 3.2 0 0 0-.129-1.207l-1.584-3.186a.76.76 0 0 0-.529-.36l-3.56-.017zm-10.55 8.183a1.17 1.17 0 0 0-1.988-.854 1.17 1.17 0 0 0 .819 2.003 1.17 1.17 0 0 0 1.169-1.151v.003zm12.841 0a1.17 1.17 0 0 0-1.989-.85 1.17 1.17 0 0 0 .821 2.002 1.17 1.17 0 0 0 1.169-1.157v.006zm-36.186-5.851h2.195c.859.017 1.298.45 1.303 1.315v6.707c0 .877-.447 1.306-1.309 1.309H12.811c-.877 0-1.318-.438-1.324-1.295v-6.777c0-.815.456-1.239 1.28-1.26h2.215v-.731-4.968c0-.877.444-1.306 1.303-1.312h6.722c.894 0 1.318.447 1.324 1.368l-.003 5.643zm-6.967-4.635v4.588h4.577v-4.588h-4.577zm-3.507 7.014v4.583h4.58v-4.591l-4.58.009zm11.585 4.591v-4.559h-4.571v4.559h4.571zM12.658 70a4.67 4.67 0 0 1-2.594-.786c-.768-.513-1.368-1.241-1.722-2.093a4.68 4.68 0 0 1 1-5.092 4.67 4.67 0 0 1 2.386-1.287c.905-.184 1.844-.096 2.699.253a4.67 4.67 0 0 1 2.105 1.708 4.69 4.69 0 0 1 .804 2.589 4.68 4.68 0 0 1-.347 1.799 4.69 4.69 0 0 1-1.011 1.528 4.67 4.67 0 0 1-1.521 1.022c-.569.237-1.18.359-1.797.359zm-.05-7.014a2.34 2.34 0 0 0-1.571 4.022 2.34 2.34 0 0 0 3.958-1.726A2.34 2.34 0 0 0 12.62 63l-.012-.015zm25.73 2.373c-.004.925-.282 1.827-.799 2.594a4.67 4.67 0 0 1-2.106 1.713 4.68 4.68 0 0 1-2.702.255c-.906-.184-1.737-.633-2.389-1.289a4.67 4.67 0 0 1-1.27-2.399c-.177-.908-.081-1.847.277-2.7a4.68 4.68 0 0 1 1.73-2.092 4.67 4.67 0 0 1 2.6-.778 4.68 4.68 0 0 1 1.789.363c.567.237 1.081.584 1.514 1.02a4.67 4.67 0 0 1 1.008 1.522c.233.569.351 1.177.348 1.792zm-2.338 0a2.34 2.34 0 0 0-3.984-1.681 2.34 2.34 0 0 0-.646 1.197c-.092.454-.047.925.13 1.354a2.34 2.34 0 0 0 4.5-.885v.015zM53.506 70c-.925 0-1.829-.274-2.598-.788s-1.368-1.244-1.722-2.099a4.67 4.67 0 0 1-.266-2.702 4.68 4.68 0 0 1 3.674-3.674 4.67 4.67 0 0 1 2.702.266c.855.354 1.585.953 2.099 1.722s.788 1.673.788 2.598c0 1.24-.493 2.43-1.37 3.306S54.746 70 53.506 70zm2.338-4.705a2.34 2.34 0 0 0-1.478-2.144 2.33 2.33 0 0 0-1.357-.11 2.34 2.34 0 0 0-1.805 1.877c-.081.457-.024.927.163 1.351a2.34 2.34 0 0 0 4.479-.974h-.003zm12.887-32.613h2.247v2.259h-2.247v-2.259z"/></svg>