<svg xmlns="http://www.w3.org/2000/svg" width="70" height="70" fill="#fff"><path d="M32.737 63.474c-.742 3.772-3.723 6.406-7.255 6.524-3.236.107-7-1.892-7.939-6.57h-3.11c-2.111 0-3.479-1.377-3.479-3.51V7.985c0-1.24-.17-1.407-1.418-1.407-1.935 0-3.876-.068-5.806.019C1.373 6.701.004 4.906.004 3.285S1.414-.082 3.686 0s4.555.019 6.844.019c4.2 0 6.984 2.77 6.984 6.953v47.667h3.285V34.047c0-1.996 1.404-3.406 3.386-3.411h6.904.641v-2.913-17.562c0-2.226 1.347-3.578 3.559-3.581h16.946c2.176 0 3.545 1.369 3.545 3.526v18.791c0 .547-.049 1.095-.079 1.736h.676 6.902c2.039 0 3.438 1.393 3.438 3.427v19.062c0 .495-.052.991-.079 1.508.274.055.547.107.838.178a3.2 3.2 0 0 1 1.819 1.126 3.21 3.21 0 0 1 .705 2.02v2.19c0 .433-.086.862-.252 1.262s-.41.763-.717 1.068-.671.547-1.072.711-.83.247-1.263.245h-3.315c-.408 2.19-1.462 3.969-3.299 5.226a7.36 7.36 0 0 1-4.777 1.322c-3.285-.23-6.351-2.488-7.118-6.504h-15.45zM39.376 8.76h-4.052c-1.051 0-1.418.375-1.418 1.448V29.13c0 1.15.35 1.497 1.506 1.5h16.606c1.248 0 1.574-.326 1.574-1.569V10.345a4.18 4.18 0 0 0 0-.613c-.088-.528-.405-.928-.931-.944-1.492-.044-2.987-.016-4.528-.016v5.188c0 .972-.392 1.369-1.369 1.369h-5.946c-1.065 0-1.429-.364-1.432-1.429l-.011-5.138zM28.442 32.813h-4.054c-1.051 0-1.415.375-1.415 1.448v18.922c0 1.15.35 1.498 1.506 1.498h16.604c1.246 0 1.574-.326 1.574-1.569V34.403a3.82 3.82 0 0 0-.014-.613c-.085-.528-.405-.928-.931-.944-1.492-.044-2.987 0-4.525 0v5.188c0 .969-.394 1.369-1.369 1.369h-5.943c-1.065 0-1.432-.364-1.432-1.429v-5.155-.005zm21.868 0h-3.972c-1.15 0-1.497.348-1.497 1.503v18.856c0 1.155.35 1.508 1.495 1.508h16.603c1.276 0 1.588-.318 1.588-1.623V37.891v-3.833c0-.706-.334-1.207-.931-1.226-1.492-.046-2.989-.016-4.536-.016v5.177c0 .977-.386 1.369-1.355 1.369h-5.943c-1.073 0-1.443-.364-1.446-1.421l-.005-5.127zM13.177 14.265v40.368h2.108V14.265h-2.108zm19.549 46.939h15.383a20.55 20.55 0 0 1 .849-2.283c.388-.684.816-1.345 1.281-1.979H30.58c1.139 1.165 1.889 2.654 2.146 4.262zm23.081-4.331c-1.083-.008-2.145.306-3.05.902s-1.613 1.447-2.034 2.445-.536 2.099-.331 3.163.721 2.043 1.483 2.814 1.735 1.298 2.796 1.515 2.163.115 3.167-.295a5.47 5.47 0 0 0 2.468-2.005 5.48 5.48 0 0 0 .938-3.039 5.49 5.49 0 0 0-5.437-5.5zm-25.186 5.475a5.47 5.47 0 0 0-.915-3.046c-.6-.902-1.454-1.607-2.454-2.024a5.47 5.47 0 0 0-3.165-.318c-1.063.21-2.04.73-2.808 1.495s-1.291 1.741-1.503 2.803a5.48 5.48 0 0 0 .309 3.166c.414 1.002 1.116 1.858 2.016 2.46s1.96.924 3.044.924a5.49 5.49 0 0 0 5.481-5.459h-.006zM15.31 12.021c0-1.982.066-3.896-.019-5.801-.062-1.035-.501-2.011-1.233-2.745a4.25 4.25 0 0 0-2.742-1.239c-2.68-.09-5.368-.047-8.054-.019A1.06 1.06 0 0 0 2.2 3.312a1.1 1.1 0 0 0 .309.737 1.09 1.09 0 0 0 .728.33 5.15 5.15 0 0 0 .548 0h6.348c.505-.021 1.005.098 1.446.344a2.74 2.74 0 0 1 1.053 1.049 3.93 3.93 0 0 1 .476 1.733c.066 1.489.022 2.984.022 4.495l2.179.019zm2.272 49.227a8.15 8.15 0 0 1 2.133-4.325h-6.57v3.249a1.04 1.04 0 0 0 .078.419 1.05 1.05 0 0 0 .238.353c.103.1.225.178.359.229a1.04 1.04 0 0 0 .421.067c1.095.025 2.19.008 3.343.008zm45.77 0h3.392a1.05 1.05 0 0 0 .417-.084 1.06 1.06 0 0 0 .35-.242c.099-.103.176-.227.225-.361a1.06 1.06 0 0 0 .064-.421c.022-.679.016-1.369 0-2.042-.016-.788-.435-1.202-1.235-1.21h-3.474-1.949a8.05 8.05 0 0 1 2.209 4.358v.003zM45.921 8.809h-4.306v4.276h4.312l-.006-4.276zM34.952 37.165v-4.293h-4.287v4.293h4.287zm21.901-4.29h-4.312v4.268h4.314l-.003-4.268zm-7.647-4.432h-1.095c-.288 0-.564-.113-.769-.315s-.322-.476-.326-.764c-.004-.143.021-.285.072-.417s.13-.254.23-.356a1.06 1.06 0 0 1 .35-.239c.131-.055.273-.083.415-.083h2.245a1.07 1.07 0 0 1 .754.328c.097.101.175.222.226.353a1.1 1.1 0 0 1 .074.413 1.1 1.1 0 0 1-.312.732c-.192.196-.451.313-.725.327-.367.047-.753.019-1.139.019zM38.28 52.499h-1.095a1.1 1.1 0 0 1-.768-.314c-.205-.201-.322-.475-.327-.762a1.07 1.07 0 0 1 .073-.416c.052-.132.129-.253.228-.355a1.07 1.07 0 0 1 .761-.324h2.242c.26.035.498.163.672.359s.271.448.275.711-.087.517-.255.718-.403.335-.662.378c-.383.03-.772 0-1.155 0l.011.005zm21.848-.004h-1.155a1.08 1.08 0 0 1-1.007-1.095 1.06 1.06 0 0 1 .289-.743c.189-.201.449-.32.724-.333h2.311a1.07 1.07 0 0 1 1.043 1.051 1.1 1.1 0 0 1-.296.77 1.09 1.09 0 0 1-.749.344c-.386.027-.783.005-1.158.005zm-1.073 9.876a3.29 3.29 0 0 1-.57 1.827c-.367.539-.887.956-1.492 1.199a3.28 3.28 0 0 1-1.907.164 3.29 3.29 0 0 1-1.675-.927 3.28 3.28 0 0 1-.873-1.703 3.29 3.29 0 0 1 1.47-3.354 3.29 3.29 0 0 1 1.845-.512c.861.022 1.679.38 2.278.999s.931 1.447.925 2.308zm-2.19-.016c.003-.217-.058-.431-.177-.613s-.288-.325-.488-.41-.421-.11-.634-.069a1.1 1.1 0 0 0-.565.296c-.155.153-.261.348-.304.56s-.023.434.059.635.223.373.403.494.393.186.61.186a1.09 1.09 0 0 0 .77-.314c.205-.202.323-.477.327-.765h-.003zm-31.728-3.292a3.29 3.29 0 0 1 1.835.542 3.28 3.28 0 0 1 1.416 3.375 3.29 3.29 0 0 1-.899 1.689c-.461.461-1.048.775-1.687.902s-1.302.06-1.904-.191a3.28 3.28 0 0 1-1.474-1.219 3.29 3.29 0 0 1-.545-1.834c.006-.863.351-1.689.96-2.299s1.435-.957 2.298-.964zm0 4.38a1.09 1.09 0 0 0 .608-.185 1.1 1.1 0 0 0 .403-.491 1.09 1.09 0 0 0 .062-.633c-.043-.213-.147-.407-.3-.561s-.348-.257-.561-.3-.433-.02-.633.062-.371.223-.491.403-.184.392-.184.608a1.11 1.11 0 0 0 1.109 1.084l-.014.011z"/></svg>