<svg xmlns="http://www.w3.org/2000/svg" width="72" height="70" fill="#fff"><path d="M61.371 47.434h5.922c2.256 0 3.649 1.413 3.649 3.656v15.3c0 2.195-1.41 3.61-3.624 3.61H49.767c-2.239 0-3.635-1.412-3.641-3.672v-4.921c-.164.028-.326.066-.485.113-2.857 1.021-5.854 1.593-8.886 1.695-.127.017-.249.059-.358.126a.92.92 0 0 0-.276.261c-2.489 4.273-6.203 6.401-11.142 6.382H13.276c-6.988.008-12.258-5.26-12.267-12.244v-3.52h6.768c0-.774.02-1.475-.014-2.17a.69.69 0 0 0-.113-.261.7.7 0 0 0-.208-.194c-1.562-.938-2.214-2.331-1.799-3.89s1.692-2.5 3.471-2.542h.496l-.871-2.901a27.61 27.61 0 0 1 .059-14.69 1.27 1.27 0 0 0-.192-1.147l-5.64-8.441C-.548 12.608.752 5.596 5.89 2.042c6.582-4.554 15.758-.912 17.408 6.907.048.229.104.455.166.726 9.819-4.396 19.277-3.771 28.406 2.006l1.816-2.407-6.968-6.958c.815-.797 1.551-1.545 2.332-2.243.133-.119.479-.073.694 0l9.024 3.006a.89.89 0 0 0 1.044-.223c2.417-2.26 5.967-2.229 8.26.034s2.358 5.865.085 8.311c-.145.126-.246.296-.286.484a.89.89 0 0 0 .063.559l2.984 8.873a.97.97 0 0 1 .059.658c-.058.219-.192.412-.377.542-.637.585-1.221 1.232-1.892 1.913l-6.878-6.998-2.515 1.896c5.742 9.065 6.393 18.464 2.059 28.306zm-8.46 2.26h-3.06c-1.091 0-1.464.381-1.464 1.494v15.08c0 1.099.378 1.475 1.486 1.475h17.332c1.105 0 1.481-.379 1.481-1.48V56.254v-5.215c0-.667-.24-1.243-.916-1.297-1.182-.09-2.372-.025-3.635-.025v4.452H52.902l.009-4.475zm-49.632 6.78v1.695a9.76 9.76 0 0 0 2.858 6.735 9.73 9.73 0 0 0 6.73 2.847h12.752a9.48 9.48 0 0 0 3.638-.728 9.5 9.5 0 0 0 3.082-2.069c1.141-1.084 1.98-2.447 2.434-3.955h-.925-20.501c-.193.025-.389-.018-.554-.121s-.29-.26-.354-.444a87.36 87.36 0 0 0-1.762-3.523.87.87 0 0 0-.256-.28.88.88 0 0 0-.35-.144l-6.802-.026.011.011zm40.749-33.812H28.112c-.711 3.687-1.089 7.432-1.128 11.187h18.155l-1.111-11.187zm-.189 24.772a63.76 63.76 0 0 0 1.145-11.226H26.84l.846 8.757c.017.164.282.314.443.452.564.497 1.252.913 1.692 1.506a1.08 1.08 0 0 0 .423.406 1.07 1.07 0 0 0 .573.122H41.6l2.239-.017zM3.268 11.218a9.29 9.29 0 0 0 1.543 5.469l6.486 9.729c.618.921 1.368.921 1.988 0l6.486-9.732c1.036-1.555 1.575-3.388 1.545-5.257.013-1.187-.207-2.365-.648-3.467a9.05 9.05 0 0 0-1.923-2.955 9.02 9.02 0 0 0-2.906-1.993 9.01 9.01 0 0 0-6.907-.078 9.03 9.03 0 0 0-2.95 1.927 9.05 9.05 0 0 0-2.715 6.362v-.006zm43.05 36.197c-.062-.02-.017 0 .028 0h12.039a.82.82 0 0 0 .581-.446c.677-1.619 1.396-3.229 1.94-4.893a21 21 0 0 0 .956-5.865H47.403l-1.086 11.204zm-20.984-2.237l-.711-8.975H10.072a24.69 24.69 0 0 0 1.901 8.58.88.88 0 0 0 .682.379l7.05.017h5.629zM10.016 33.849H24.55l1.086-11.207c.062.017 0-.017-.065-.017-2.231 0-4.461-.02-6.692 0-.128.025-.249.076-.356.149a.99.99 0 0 0-.27.277l-3.212 4.802a3.11 3.11 0 0 1-1.057 1.061 3.1 3.1 0 0 1-1.43.442c-.587.025-1.182-.136-1.898-.229l-.64 4.721zm47.421-13.368l-.195.031c.039.198.065.398.116.596l1.153 4.644c.053.232.113.588 0 .715-1.182 1.229-2.403 2.418-3.666 3.672l-3.325-6.636c-1.091.387-2.183.401-3.009-.384-.747-.712-1.517-.435-2.186-.477l1.074 11.215h14.472a25.57 25.57 0 0 0-4.436-13.376zm6.559-17.052a3.79 3.79 0 0 0-1.485.286 3.8 3.8 0 0 0-1.256.844l-3.333 3.348a40.89 40.89 0 0 0-8.178 12.147c-.172.393-.389.78 0 1.167s.807.186 1.227 0c6.204-2.633 11.201-6.899 15.71-11.794 1.029-1.13 1.173-2.5.533-3.882a3.55 3.55 0 0 0-1.297-1.533c-.571-.375-1.238-.578-1.92-.583zM40.915 16.243c.183-.585.987-.695.595-1.365-.745-1.268-1.359-2.641-2.256-3.794-2.101-2.701-4.422-2.667-6.556 0s-3.167 5.921-4.069 9.226h14.698c-.13-.483-.228-.915-.358-1.336-.352-1.164-.46-2.511-2.053-2.732zm-3.827 44.375l.228.09c3.725-2.687 4.746-6.87 6.046-11.017H30.486a.66.66 0 0 0-.448.22c-.454.551-.88 1.13-1.376 1.768.031.068.11.257.203.444l2.975 5.98a.93.93 0 0 0 1.015.613c1.41-.037 2.797 0 4.23 0l.003 1.901zM10.07 54.203c.34.02.681.02 1.021 0 .564-.068.88.13 1.128.672.482 1.09 1.08 2.133 1.579 3.218a.94.94 0 0 0 .384.501c.182.117.399.168.614.143l14.151-.017c.197 0 .395-.02.677-.037l-3.037-6.108a.95.95 0 0 0-.391-.493c-.183-.115-.399-.164-.613-.139l-14.785.014h-.728v2.246zm20.868-44.55a2.27 2.27 0 0 0-.384 0 24.76 24.76 0 0 0-6.644 2.432 1.03 1.03 0 0 0-.286.312c-.073.123-.12.259-.137.4a11.68 11.68 0 0 1-2.09 5.531c-.437.63-.846 1.274-1.342 2.026h5.66c.477 0 .626-.167.739-.602.916-3.571 2.143-7.023 4.481-10.099h.003zM18.002 47.437H9.404c-.211-.013-.422-.007-.632.017-.257.05-.488.189-.654.391a1.13 1.13 0 0 0 .654 1.827 3.92 3.92 0 0 0 .702.02h16.274c.423 0 .846.02 1.266-.014a1.13 1.13 0 0 0 0-2.229c-.188-.011-.376-.011-.564 0l-8.449-.011zm23.18 13.111l4.738-1.585c.116-.042.197-.348.197-.531v-8.721c-.344-.113-.479.071-.598.466-.502 1.658-.936 3.353-1.61 4.941-.761 1.822-1.762 3.545-2.727 5.43zm14.013-10.814V51.9h6.669v-2.203h-6.376a2.13 2.13 0 0 0-.293.037zM41.183 9.678l2.29 3.814c.191-.149.368-.315.527-.497.412-.607.914-.613 1.574-.424 1.464.421 2.95.757 4.427 1.13.193.031.388.049.584.054-1.63-1.59-6.957-3.867-9.402-4.076zm9.371-6.961l4.498 4.52 2.51-2.172-7.008-2.348zm13.234 13.15l4.45 4.449-2.315-6.935-2.135 2.486zm-14.492-.031c-1.128-.282-2.217-.523-3.263-.847-.632-.195-.995 0-1.308.565l3.742 1.867.829-1.585zm4.261 6.701l1.974 3.916c.257-.455.601-.777.564-1.02-.242-1.232-.589-2.446-.916-3.735l-1.621.839zm-8.378-4.212c.626 2.438.09 2.034 2.101 1.978l.214-.811-2.315-1.167zm16.7 47.152v-2.198h-2.16v2.198h2.16zm4.537-2.198h-2.171v2.178h2.171v-2.178zM41.563 31.618V29.42h-2.16v2.198h2.16zm-4.512 0v-2.181H34.88v2.172l2.171.008zm-6.672-2.195v2.172h2.174v-2.172h-2.174zm6.68 11.21v-2.172h-2.177v2.172h2.177zm4.54-2.181h-2.191v2.155h2.191v-2.155zm-11.232-.017v2.189h2.177v-2.189h-2.177zm29.806-26.061l1.438-1.537-1.334-1.429-1.571 1.432 1.466 1.534zm3.102-3.308l1.554-1.353-1.41-1.545-1.5 1.48 1.356 1.418zm-6.204 3.458l-1.444 1.294 1.396 1.576 1.523-1.39-1.475-1.48z"/><path d="M61.878 65.477h-2.16V63.28h2.16v2.197zm4.539-2.198v2.178h-2.171v-2.178h2.171zM41.562 31.617h-2.16V29.42h2.16v2.197zm-4.506-.008h-2.171v-2.172h2.171v2.172zm-6.671-2.195h2.174v2.172h-2.174v-2.172zm6.674 11.22h-2.177v-2.172h2.177v2.172zm4.54-2.179v2.155h-2.191v-2.155h2.191zm-11.232-.019h2.177v2.189h-2.177v-2.189zM19.059 11.342a6.79 6.79 0 0 1-1.141 3.767 6.77 6.77 0 0 1-3.037 2.497 6.76 6.76 0 0 1-3.91.386c-1.313-.261-2.519-.907-3.465-1.855s-1.591-2.156-1.852-3.472a6.79 6.79 0 0 1 .385-3.917c.512-1.239 1.38-2.298 2.493-3.043a6.76 6.76 0 0 1 8.546.843 6.79 6.79 0 0 1 1.982 4.794zm-2.256 0c0-.892-.264-1.765-.758-2.507s-1.197-1.322-2.019-1.665a4.5 4.5 0 0 0-2.602-.263 4.51 4.51 0 0 0-2.311 1.227 4.52 4.52 0 0 0-1.243 2.305c-.178.874-.094 1.782.242 2.608a4.52 4.52 0 0 0 1.646 2.036c.737.501 1.606.772 2.497.78a4.49 4.49 0 0 0 1.739-.335 4.51 4.51 0 0 0 1.476-.98 4.52 4.52 0 0 0 .986-1.473c.228-.552.345-1.143.344-1.74l.003.008zm43.37 1.032l-1.466-1.534 1.571-1.432 1.345 1.429-1.45 1.537zm3.11-3.308L61.93 7.653l1.5-1.48 1.41 1.545-1.557 1.348zm-6.208 3.457l1.475 1.48-1.523 1.39-1.396-1.576 1.444-1.294zM16.786 54.254v2.172h-2.171v-2.172h2.171zm4.512-.015v2.172h-2.196v-2.172h2.196zm2.3 2.189v-2.189h2.188v2.178l-2.188.011z"/></svg>