<svg xmlns="http://www.w3.org/2000/svg" width="68" height="70" fill="#fff"><path d="M23.684 49h19.424c1.283 0 1.631.356 1.631 1.656v17.715c0 1.279-.354 1.63-1.654 1.63H1.93C.638 70 .287 69.65.287 68.356V31.979c0-1.297.348-1.644 1.64-1.644H22.03c1.3 0 1.654.348 1.654 1.633V49zm-21.02-.053h18.642V32.709h-4.641v5.569c0 .923-.428 1.376-1.315 1.381H8.617c-.878 0-1.312-.456-1.318-1.378v-4.883l-.032-.698H2.665v16.246zm.018 2.427v16.255h18.616V51.4h-4.632v5.441c0 1.098-.401 1.498-1.49 1.501H9.027c-1.405 0-1.733-.324-1.733-1.7v-5.257l-4.611-.012zm21.028 16.24h18.651V51.38H37.72v5.572c0 .92-.428 1.373-1.315 1.379h-6.734c-.878 0-1.312-.456-1.318-1.379v-4.883l-.032-.698H23.71v16.244zm-9.448-30.297v-4.608H9.703v4.597l4.559.012zM9.7 51.368v4.573h4.585v-4.573H9.7zm25.643 0h-4.591v4.567h4.591v-4.567zM32.699 4.673l-.729-2.982C31.716.64 32.178.015 33.244.012L42.156 0c1.11 0 1.561.619 1.297 1.717l-.714 2.947h4.752 6.441c2.825 0 4.84 2.003 4.843 4.822v19.027.608h-2.342v-.791V9.81c0-1.922-.878-2.789-2.817-2.789h-6.482v2.336h4.576c2.31 0 2.386.076 2.386 2.357V30.32h-2.313V11.717H23.711v16.235h-2.369V10.996c0-1.326.343-1.659 1.698-1.659h5.27V7.009h-6.673c-1.689 0-2.635.935-2.635 2.611v17.496.841H16.66V9.746c.006-3.154 1.938-5.073 5.109-5.073h10.93zm-1.962 4.611H44.7V7.009h-3.3c-1.019-.015-1.493-.642-1.256-1.638l.735-2.996h-6.318l.697 2.856c.293 1.189-.161 1.773-1.367 1.779h-3.153v2.275zm21.248 36.458l-.647-2.149 1.736-.549 5.736-1.694c.46-.128.624-.336.586-.812-.05-.552 0-1.113 0-1.784l-2.89.844-21.962 6.545a4.83 4.83 0 0 1-1.921.105l-4.245-.712c-.559-.091-1.066-.324-1.107-.876-.018-.465.142-.919.448-1.27l3.513-3.3a2.52 2.52 0 0 1 .94-.52l30.676-9.161c2.732-.815 5.068.876 4.857 3.551a3.25 3.25 0 0 1-.683 1.858 3.26 3.26 0 0 1-1.636 1.12 38.15 38.15 0 0 1-3.139.958c-.466.126-.627.318-.586.803l.144 2.982c.041.876-.208 1.27-1.031 1.521l-8.52 2.555a1.22 1.22 0 0 1-.269-.015zm7.007-11.763l-18.633 5.569.668 2.196.77-.199 15.427-4.614c2.099-.631 2.096-.634 1.842-2.809a.97.97 0 0 0-.073-.143zm-28.017 9.588c1.341.292 2.577.584 3.9.067 1.25-.499 2.58-.803 3.912-1.203l-.694-2.208-3.727 1.084c-1.426.298-2.418 1.145-3.391 2.26zm30.553-7.903l3.033-.935c.147-.041.285-.112.404-.208s.218-.215.29-.349.116-.283.129-.435a1.13 1.13 0 0 0-.053-.451 1.12 1.12 0 0 0-.536-.664c-.26-.142-.565-.176-.849-.095l-2.55.736.132 2.401zm-5.095 11.039h2.342v.689 9.468c0 3.008-1.971 4.965-4.977 4.965h-6.673v-2.336h.741 5.99c1.637 0 2.58-.946 2.582-2.582v-9.398l-.006-.806zM29.521 14.018h2.187c.878 0 1.321.438 1.329 1.285v4.436c0 .815-.454 1.262-1.271 1.27h-4.448c-.852 0-1.285-.459-1.291-1.323v-4.363c0-.862.445-1.291 1.306-1.308l2.187.003zm-1.124 4.591h2.269v-2.214h-2.269v2.214zm-2.375 9.398v-2.182c.018-.876.442-1.311 1.297-1.32h4.447c.817 0 1.259.453 1.268 1.27v4.436c0 .847-.463 1.276-1.332 1.285h-4.374c-.858 0-1.288-.453-1.306-1.311v-2.179zm2.404-1.168v2.266h2.219v-2.237l-2.219-.029zm6.996-5.885v-2.246h13.937v2.246H35.422zm-.025 10.49v-2.222h13.972v2.222H35.397zm18.701 16.452v8.06c0 .71-.433 1.197-1.104 1.206h-5.856v-2.31h4.603v-6.956h2.357zM40.107 16.299v-2.246h9.282v2.246h-9.282zm0 10.487v-2.255h9.27v2.249l-9.27.006zm-2.444-10.472h-2.241v-2.273h2.238l.003 2.273zm-2.268 10.478V24.56h2.279v2.232h-2.279zM18.97 44.373v2.244h-2.261v-2.244h2.261zm.001 20.931h-2.258V63.04h2.258v2.264zm18.793-2.273h2.25v2.255h-2.25v-2.255z"/></svg>